<?xml version="1.0" encoding="UTF-8" standalone="no"?>
<svg
   xmlns:dc="http://purl.org/dc/elements/1.1/"
   xmlns:cc="http://creativecommons.org/ns#"
   xmlns:rdf="http://www.w3.org/1999/02/22-rdf-syntax-ns#"
   xmlns:svg="http://www.w3.org/2000/svg"
   xmlns="http://www.w3.org/2000/svg"
   xmlns:sodipodi="http://sodipodi.sourceforge.net/DTD/sodipodi-0.dtd"
   xmlns:inkscape="http://www.inkscape.org/namespaces/inkscape"
   class="svgIcon-use"
   width="33"
   height="33"
   version="1.1"
   id="svg4"
   sodipodi:docname="punch.svg"
   inkscape:version="0.92.3 (2405546, 2018-03-11)">
  <metadata
     id="metadata10">
    <rdf:RDF>
      <cc:Work
         rdf:about="">
        <dc:format>image/svg+xml</dc:format>
        <dc:type
           rdf:resource="http://purl.org/dc/dcmitype/StillImage" />
        <dc:title />
      </cc:Work>
    </rdf:RDF>
  </metadata>
  <defs
     id="defs8">
    <pattern
       y="0"
       x="0"
       height="6"
       width="6"
       patternUnits="userSpaceOnUse"
       id="EMFhbasepattern" />
  </defs>
  <sodipodi:namedview
     pagecolor="#ffffff"
     bordercolor="#666666"
     borderopacity="1"
     objecttolerance="10"
     gridtolerance="10"
     guidetolerance="10"
     inkscape:pageopacity="0"
     inkscape:pageshadow="2"
     inkscape:window-width="1366"
     inkscape:window-height="715"
     id="namedview6"
     showgrid="false"
     inkscape:zoom="11.313709"
     inkscape:cx="26.465839"
     inkscape:cy="13.766321"
     inkscape:window-x="-8"
     inkscape:window-y="-8"
     inkscape:window-maximized="1"
     inkscape:current-layer="svg4" />
  <path
     id="path1584"
     style="fill:#000000;fill-opacity:1;fill-rule:evenodd;stroke:none;stroke-width:0.15511538"
     d="m 10.821686,10.333748 c -0.111222,-0.07642 -0.462449,-0.01764 -0.544403,0.05291 -0.07024,0.0529 -0.3570811,0.270407 -0.3336654,0.329192 0.046827,0.111688 0.3512284,-0.105813 0.4273274,-0.146962 l 0.374641,-0.141081 c 0.134639,-0.07054 0.05854,0.01175 0.0761,-0.09406 z M 9.5514128,22.790105 c 0.099515,0.07054 0.3102516,0.04115 0.4331809,0.04115 0.4507423,-0.01175 0.3161053,0.01763 0.6731873,-0.246894 0.0878,-0.05879 0.257565,-0.14696 0.216589,-0.235136 -0.05853,-0.105813 -0.532695,0.158717 -0.626355,0.188109 -0.117076,0.02939 -0.2634213,0.0529 -0.3804965,0.07642 -0.058532,0.01175 -0.1521983,0.02351 -0.2048827,0.04115 -0.1404918,0.03527 -0.111223,-0.0059 -0.111223,0.135203 z M 14.181763,8.5408328 C 14.737871,8.3938723 14.421768,8.2292758 15.621794,8.017654 15.879361,7.976502 15.803261,7.982374 15.826677,7.923597 15.709601,7.853057 15.463742,7.882445 15.317397,7.876564 15.053977,7.870684 14.960315,7.817777 14.79641,7.952986 l -0.474158,0.4056106 c -0.105367,0.082293 -0.111221,0.047033 -0.140489,0.1822305 z M 9.4636065,10.457195 c 0.1697605,-0.01175 0.6263555,-0.299799 0.8253845,-0.393854 l 0.702456,-0.2116224 c 0.02926,-0.00588 0.09951,-0.023507 0.122929,-0.029388 0.07025,-0.03528 0.04683,0 0.07025,-0.07054 -0.111221,-0.082293 -0.386351,-0.011753 -0.532696,-0.00588 -0.26342,0.017635 -0.35708,-0.017635 -0.520986,0.1234468 L 9.6216597,10.274966 c -0.1463449,0.11169 -0.1346376,0.09406 -0.1580523,0.182231 z M 13.43833,22.560847 c 0.05268,0.11169 0.228298,0.129326 0.333666,0.164596 0.234152,0.08229 0.222445,0.105812 0.485866,0.105812 0.597086,-0.0059 0.509279,0.02351 0.930752,-0.22926 0.12293,-0.07054 0.245859,-0.141082 0.368788,-0.211622 0.06439,-0.03527 0.105369,-0.06466 0.175615,-0.09993 0.08195,-0.04703 0.128783,-0.04703 0.152199,-0.141082 -0.08781,-0.05879 -0.433181,0.09993 -0.550257,0.141082 -0.456596,0.164596 -0.667332,0.26453 -1.182466,0.335069 -0.187321,0.02351 -0.497572,-0.05291 -0.714163,-0.06466 z m -4.6186397,-0.517301 -0.00588,0.15284 c 0.2224439,0.04115 0.4858649,0.05879 0.7083079,0.07642 0.3161056,0.03528 0.3453745,-0.01175 0.6263578,-0.111688 0.304397,-0.105812 0.304397,-0.07054 0.497572,-0.288044 0.158052,-0.176353 0.345372,-0.32919 0.339519,-0.487908 -0.163906,0.04703 -0.831238,0.576085 -1.4868635,0.605476 -0.1756136,0.0059 -0.5326942,0 -0.6790391,0.05291 z M 16.113513,7.4356916 C 16.066686,7.3181234 15.686187,7.2417028 15.463742,7.1711619 15.124223,7.0712296 15.083246,7.1358919 14.74958,7.23583 c -0.661479,0.1939878 -0.33952,0.082293 -1.024414,0.8288562 -0.04097,0.041151 -0.193175,0.25865 0.01172,0.1704732 0.02926,-0.011753 0.222444,-0.1763519 0.257567,-0.2057442 0.128783,-0.094057 0.392204,-0.3409473 0.520987,-0.3879746 0.439034,-0.1763528 0.72587,-0.2233801 1.164904,-0.1939888 l 0.333666,0.017635 c 0.09366,-0.00588 -0.04098,0.058787 0.09952,-0.029388 z m -3.41276,14.3492044 c 0.02341,0.111691 0.0059,0.08229 0.33952,0.123447 0.585379,0.06466 0.702455,0.117568 1.346372,0.04703 0.251713,-0.0294 0.924899,-0.370338 1.246857,-0.493785 0.146344,-0.0529 0.128784,-0.02351 0.134637,-0.135203 -0.09952,-0.07642 -0.491717,0.07054 -0.690746,0.123446 -0.485865,0.135204 -1.012707,0.299797 -1.516133,0.305677 -0.175614,0 -0.749285,-0.02351 -0.860507,0.02939 z m 5.192313,-0.487907 c 0.04683,0.09993 0.117075,0.06466 0.415618,0.09993 0.878069,0.105812 0.89563,0.152838 1.750283,-0.146962 0.146345,-0.05291 0.433182,-0.352704 0.55611,-0.47615 0.0761,-0.08229 0.240006,-0.158719 0.234152,-0.288043 -0.09951,0.0059 -0.480011,0.241016 -0.60294,0.311555 -0.427327,0.235137 -0.971729,0.387977 -1.475155,0.405612 -0.14049,0.0059 -0.819531,0 -0.878068,0.09406 z m -0.357082,-0.911154 c 0.07025,0.07642 0.731724,0.0529 0.872214,0.0529 0.286836,0.0059 1.299543,-0.217501 1.551255,-0.323311 0.134636,-0.05879 0.550256,-0.223381 0.561964,-0.364462 -0.497572,0.0059 -1.071243,0.158717 -1.52784,0.276285 -0.18732,0.04703 -1.410763,0.26453 -1.457593,0.358583 z m 5.912328,-0.793586 c 0.02926,0.09993 0.09366,0.07642 0.357081,0.146961 0.790262,0.199867 0.643918,0.229257 1.281982,0.04702 0.204883,-0.05879 0.661477,-0.164595 0.801968,-0.25865 0.210737,-0.14696 0.409766,-0.311556 0.608795,-0.458517 0.06438,-0.04703 0.111221,-0.05879 0.105368,-0.117568 -0.01171,-0.10581 -0.117076,-0.0529 -0.163907,-0.03528 -0.43318,0.170474 -0.345374,0.235138 -1.14149,0.470274 -0.210734,0.06466 -0.643916,0.217501 -0.860507,0.217501 -0.181466,-0.0059 -0.878067,-0.08229 -0.98929,-0.01175 z m -0.07024,-0.570206 c 0.333665,-0.07054 0.989289,-0.452637 1.551254,-0.581963 0.210736,-0.0529 0.696601,-0.188109 0.901483,-0.170475 l 0.725871,0.08229 c 0.0878,0.01175 0.1522,0.03527 0.234151,-0.01176 -0.05853,-0.105812 -0.234151,-0.123447 -0.427326,-0.193987 -0.80197,-0.276285 -0.608796,-0.229259 -1.45174,-0.0294 -0.421473,0.09406 -0.520988,0.193989 -0.825385,0.387977 l -0.567818,0.340947 c -0.12293,0.07054 -0.128783,0.04703 -0.14049,0.176353 z m -13.5456725,12.021355 0.5092795,0.03528 0.351228,-4.585164 -0.421473,2.186768 c -0.07025,0.34683 -0.4507418,2.180895 -0.4390345,2.363126 z M 2.9483371,8.2292758 6.0625546,9.2050931 C 5.7932799,9.0404979 3.4927401,7.6590707 3.2234653,7.5356238 3.1532172,7.6238007 2.9658992,8.1058299 2.9483371,8.2292758 Z M 24.011478,7.2096149 c 0.134637,-0.111689 1.680039,-1.9104833 1.949313,-2.2102826 l 1.170758,-1.352035 -0.643918,-0.088177 -0.614648,0.899398 c -0.210736,0.3174342 -0.41562,0.6113541 -0.626356,0.9229105 z m 5.495508,19.7396461 c 0.105367,-0.199867 0.427327,-0.523174 0.509281,-0.711286 -0.158054,-0.123446 -0.532696,-0.317436 -0.725871,-0.429123 -0.240005,-0.135206 -2.095658,-1.222712 -2.247855,-1.275614 0.07025,0.129323 0.468301,0.493784 0.602939,0.61723 l 1.217589,1.216834 c 0.128784,0.129323 0.503426,0.54081 0.643917,0.581959 z m -5.057675,3.230011 0.866362,-0.235139 C 25.274698,29.779538 24.221013,27.733854 24.057106,27.404659 23.98686,27.2577 23.916615,27.116618 23.846371,26.975536 23.78783,26.846208 23.67661,26.681614 23.641487,26.58168 Z M 4.0201235,23.862458 c 0.029263,0.135205 0.3161048,0.775953 0.3863504,0.870008 l 3.3951984,-1.757648 z m 22.6220725,-13.767815 0.216589,0.358583 2.739575,-0.276285 0.0117,-0.8523704 c -0.26342,0.047033 -2.897624,0.7171664 -2.967869,0.7700724 z M 7.309412,29.309267 8.1933346,29.626698 9.3055542,25.91742 c -0.023409,0.06466 -0.4156191,0.681896 -0.4917191,0.817101 -0.2517127,0.423246 -1.4693012,2.40427 -1.5044231,2.574746 z M 23.945885,5.4487874 25.947883,2.3861347 24.589801,2.2803234 Z M 7.5698858,4.6833825 C 7.6050088,4.859735 7.9035517,5.382914 7.9972132,5.5769019 8.1435571,5.8590658 8.2899011,6.1412297 8.4421001,6.4410282 8.7406441,7.0347475 9.0567485,7.6167107 9.337731,8.1927953 9.4430998,8.1692846 9.5309052,8.1575214 9.6128584,8.1046184 L 8.4596616,4.4012187 Z M 4.453304,5.3226447 C 4.6991633,5.6165655 5.1557594,6.0574464 5.4074721,6.3278533 L 7.8192335,8.843815 C 7.9714324,9.0025309 8.1587535,9.1965187 8.3050984,9.3317229 8.2114379,9.1024641 7.7606964,8.3970548 7.6143518,8.1266475 7.3041003,7.5681984 5.9869974,5.2227119 5.6591856,4.7289254 L 5.5245478,4.4996672 c 0,0 -0.00584,-0.011755 -0.011713,-0.017633 l -0.04683,-0.04703 C 5.3899042,4.4820342 5.3020991,4.587843 5.2259992,4.6525057 5.1206311,4.7465609 5.0620933,4.770074 4.9625795,4.8758854 4.7986729,5.0463594 4.6289126,5.1462922 4.453299,5.3226447 Z M 5.2254659,28.627367 c 0.00584,0 0.017558,0.0059 0.017558,0.0059 0.1639058,0.02942 0.1756135,-0.0059 0.3043971,0.123445 0.1287826,0.129329 0.6322088,0.605482 0.6614777,0.705416 0.076101,0.335065 -0.7317242,0.758311 -0.7785543,1.034598 l 0.1521989,0.129323 C 5.8342564,30.196909 9.2177478,26.134924 9.3055542,25.91742 9.2236042,25.788098 9.1182331,25.641139 9.0070102,25.541206 Z M 24.260283,25.650349 c 0.09367,0.264527 2.452739,3.438868 2.803967,3.985559 0.09366,0.141087 0.292689,0.464399 0.409765,0.57021 0.140491,-0.0529 1.246857,-0.664261 1.328809,-0.740681 l -2.10151,-2.08684 c -0.263421,-0.252768 -2.007849,-1.992777 -2.142487,-2.057443 -0.0761,0.117569 -0.181468,0.229261 -0.298544,0.329195 z M 25.368355,6.6773754 25.625923,7.0712296 C 25.754705,7.0300781 29.103075,4.6845941 29.407471,4.4788499 29.63577,4.3260105 29.811384,4.184929 30.027973,4.0320897 30.180171,3.9262792 30.537253,3.7322912 30.636769,3.6029659 30.414324,3.3854647 30.256272,3.173842 30.051389,2.9504623 29.887482,2.7682314 29.647476,2.4272834 29.471863,2.297958 l -2.821528,2.9744768 c -0.193174,0.1998666 -1.246857,1.3167647 -1.28198,1.4049406 z M 17.834527,25.594106 c 0.380496,0.0059 0.983436,-0.09406 1.381495,-0.146957 0.280982,-0.03528 1.65077,-0.258652 1.88492,-0.37622 0.1522,-0.08229 0.310252,-0.246892 0.327813,-0.440882 0.03512,-0.464395 0.09952,-0.975816 -0.327813,-1.199194 -0.362933,-0.18811 -2.230293,0.111689 -2.733721,0.164595 -0.122928,0.01175 -0.567817,0.01763 -0.643916,0.123447 -0.228298,0.317434 -0.193175,0.946424 -0.111222,1.305007 0.07025,0.299801 0.128785,0.335067 0.222444,0.570204 z m 0.351228,-2.310214 c 1.217587,-0.05879 1.832236,-0.323313 3.283976,-0.29392 0.204884,0 0.152199,-0.0059 0.275127,0.105811 0.187323,0.164595 0.234154,0.141082 0.333667,0.446759 0.09952,0.305677 0.08195,0.358583 0.09952,0.693654 0.01757,0.364461 0,0.417369 0.199028,0.62899 0.550257,0.03528 1.223444,0 1.732723,-0.09406 0.251713,-0.04115 0.515134,-0.09406 0.760993,-0.141082 0.398056,-0.07642 0.43318,-0.05289 0.690747,-0.252769 0.128784,-0.09406 0.433181,-0.293923 0.491719,-0.423246 0.18732,-0.440882 -0.04097,-1.440212 -0.280982,-1.834065 -0.05854,-0.09993 -0.146345,-0.182231 -0.175614,-0.299799 0.152198,0 0.21659,0.129324 0.31025,0.223378 0.09952,0.09406 0.169761,0.193989 0.257566,0.323314 0.251714,0.358583 0.193177,0.358583 0.33952,0.78183 0.216591,-0.2998 -0.204881,-1.028723 -0.269274,-1.310888 0.134638,0.01175 0.02342,-0.06466 0.222445,0.199868 0.06439,0.08818 0.128784,0.176351 0.193174,0.246892 0.292691,-0.135204 0.362937,-0.29392 0.462452,-0.581962 0.257565,-0.723046 0.462448,-0.693653 0.608793,-1.463726 0.05268,-0.288043 0.117076,-0.411489 0.05268,-0.640746 l -0.05268,-0.141083 c -0.02926,-0.04703 -0.01756,-0.02351 -0.04683,-0.05879 -0.06439,0.182232 -0.169763,0.387976 -0.251714,0.576085 -0.0878,0.211623 -0.24586,0.293921 -0.415619,0.429124 -1.182466,0.964061 -0.737579,0.676017 -2.282979,1.058115 -0.105369,0.02351 -0.216591,0.0529 -0.316105,0.07642 -0.310251,0.07642 -0.439033,0.458516 -0.661479,0.611354 -0.08195,0.05879 -1.17661,0.346828 -1.305394,0.358584 -0.550257,0.04115 -1.030268,0.01763 -1.55711,0.123447 -0.468302,0.08817 -0.919044,0.182231 -1.393201,0.270406 -0.532695,0.09993 -0.626355,-0.01175 -1.03612,0.211625 z M 12.49587,12.03261 C 12.138789,11.779838 12.086105,10.510101 12.021713,10.022193 11.98659,9.7635419 12.004147,9.5401628 11.840245,9.346175 11.418773,8.8641461 11.35438,8.9993493 10.687049,9.2109718 10.423628,9.2991467 9.8792258,9.6988806 9.6567816,9.8811109 9.4987284,10.004557 8.4977317,11.227268 8.0469887,11.650513 7.7250311,11.950312 7.3562422,11.856257 6.9113539,12.17957 6.7357402,12.308895 6.004016,12.761533 5.9571858,12.926128 6.1737761,12.873223 6.4664655,12.6616 6.6596411,12.626329 c 0.1229292,-0.02351 0.8546524,0.01176 0.954168,0.0529 -0.029271,0.129326 -0.087802,0.09994 -0.2400054,0.117569 -0.111223,0.01175 -0.2107376,0.02939 -0.3278127,0.04115 -0.4741575,0.05291 -0.6322091,0.217501 -1.0244139,0.458516 -0.2282972,0.135203 -0.2458583,0.158716 -0.3102506,0.446759 0.1931749,-0.07642 0.3336661,-0.193988 0.5092797,-0.276286 0.1170758,-0.0529 0.5912331,-0.105811 0.6907477,-0.02939 -0.046829,0.09406 -0.2517128,0.09993 -0.3512273,0.123447 -0.3161048,0.07642 -0.362935,0.182231 -0.5970873,0.376219 -0.087806,0.07054 -0.1990291,0.176351 -0.2868351,0.229258 -0.023411,0.352704 0,2.96272 0.040977,3.227248 0.035124,0.182231 0.3922039,0.905275 0.4917184,1.146291 0.1580524,0.387974 0.8546527,2.051566 1.0244123,2.29258 0.228298,0.329192 0.450743,0.658383 0.6731869,0.993452 0.3161044,0.470274 0.3922035,0.48791 0.8487996,0.793585 0.1697596,0.111692 0.3161045,0.217502 0.4917172,0.335072 0.2282981,0.152837 0.2458605,0.246892 0.6146497,0.229257 0.2575667,-0.01175 0.5268397,-0.01763 0.7902607,-0.0294 0.163907,-0.01175 0.392204,-0.182229 0.550257,-0.264526 0.327812,-0.182232 0.228298,-0.09993 0.351228,-0.470275 0.11122,-0.340947 0.02927,-0.340947 -0.111222,-0.605476 C 11.243159,21.449826 11.0734,21.144149 10.891932,20.720903 10.716318,20.321171 10.546559,19.95671 10.370945,19.568734 10.189477,19.174881 9.8909341,16.65892 9.8031267,15.994659 9.779718,15.818307 9.7504472,15.806551 9.6450743,15.73013 9.4401918,15.565535 8.6557839,14.877761 8.5621224,14.719043 l 0.08195,-0.08229 0.6731849,0.411488 -0.2107356,-1.022843 c 0.2048825,-0.0294 0.2341513,0.176351 0.4156181,0.5173 0.5795272,1.087507 0.4448892,0.805342 0.7200182,2.169134 0.111222,0.546693 0.245858,1.00521 0.392203,1.522508 0.152199,0.534936 0.257567,0.96994 0.474157,1.440212 0.286836,0.640748 0.538549,1.363791 0.907337,1.951633 0.134638,0.211623 0.240006,0.435004 0.362936,0.611356 0.0761,0.10581 0.111222,0.164595 0.175613,0.282163 0.134638,0.235137 0.573672,0.499665 0.784408,0.67014 0.228298,0.18223 0.456596,0.141082 0.796116,0.170473 0.245859,0.02351 0.661479,0.111689 0.866362,0.0294 0.222444,-0.08817 0.439033,-0.182232 0.661477,-0.282165 0.415619,-0.182231 0.298544,-0.09993 0.526841,-0.440881 0.210737,-0.305678 0.222444,-0.235136 0.181468,-0.693652 -0.02926,-0.311556 -0.152198,-0.458516 -0.275128,-0.699531 -0.614648,-1.26386 -1.036121,-2.956842 -1.457594,-4.320634 -0.210737,-0.69953 -0.222443,-0.88764 -0.316105,-1.598928 -0.07024,-0.570206 -0.298543,-0.864126 -0.550256,-1.363792 -0.05853,-0.11169 -0.597087,-1.099263 -0.614649,-1.210954 -0.01171,-0.07054 -0.02341,-0.02351 0.01172,-0.07642 0.0878,-0.07642 0.158053,0.105811 0.216589,0.182231 0.06439,0.08229 0.128785,0.170473 0.193176,0.25865 0.14049,0.176352 0.257567,0.346826 0.403912,0.523179 l 0.240005,-0.06466 c -0.146344,-0.828856 -0.286835,-0.252772 -0.09951,-1.399062 0.01171,-0.07054 0.02341,-0.164596 0.03512,-0.235137 0.01171,-0.105811 0.01171,-0.170473 0.105368,-0.199866 0.0761,0.170474 0.07025,0.634869 0.09366,0.864127 0.02927,0.376218 0.433181,2.004539 0.532694,2.44542 0.27513,1.205075 0.53855,1.939877 0.901484,3.092046 0.304398,0.946424 0.673186,1.969266 1.159051,2.821636 0.275129,0.48203 0.26342,0.45264 0.649771,0.811222 0.146345,0.129325 0.117076,0.170474 0.321958,0.199867 0.831238,0.123446 0.94246,0.182229 1.750285,-0.01175 0.626354,-0.146958 0.860507,-0.199866 1.428324,-0.546691 0.357082,-0.22338 0.29269,-0.123447 0.46245,-0.540814 0.222443,-0.540815 -0.140491,-1.992784 -0.280982,-2.527719 -0.128783,-0.529056 -0.269274,-1.058114 -0.409766,-1.598928 l -0.84295,-3.626995 c -0.163906,-0.340948 -0.339519,-0.617233 -0.491719,-0.993452 l -0.48001,-1.016965 c -0.02926,-0.05879 -0.228298,-0.411488 -0.0761,-0.311556 0.0761,0.04703 0.292688,0.393854 0.35708,0.487908 0.105369,0.141083 0.316105,0.452638 0.433182,0.55845 l 0.280982,-0.05879 0.04097,-0.123447 c 0.0117,-0.03527 0.0117,-0.08818 0.01756,-0.129324 0.02926,-0.188109 0.07025,-0.687774 0.146346,-0.8171 0.158051,0.0059 0.122928,0.18811 0.140491,0.470274 0.105366,1.557779 0.02341,1.299129 0.585379,2.73934 0.614648,1.575415 0.585379,1.346157 0.919044,3.068532 0.08195,0.440881 0.310251,1.910483 0.474157,2.169134 0.169759,0.264528 0.345373,0.540814 0.503427,0.81122 0.146343,0.241015 0.0878,0.18811 0.368789,0.2998 0.86636,0.33507 0.708308,0.376218 1.533692,0.211623 1.15905,-0.229259 0.8488,-0.123446 1.814676,-0.828856 0.38635,-0.276285 0.380496,-0.323312 0.591233,-0.746559 0.351226,-0.699532 -0.333667,-1.933998 -0.08195,-2.29846 0.09366,0.02939 0.07025,0.03527 0.09366,0.170475 0.01171,0.06466 0.02341,0.18223 0.04097,0.235136 0.02341,0.05879 0.0761,0.117568 0.12293,0.152838 0.09952,0.07642 0.12293,0.05291 0.263421,0.04703 0.386351,-0.928789 -0.456597,-2.92745 -0.819531,-3.903266 -0.14049,-0.387976 -0.286836,-0.805343 -0.579526,-1.087506 -0.128783,0.135204 -0.169761,0.252772 -0.14049,0.470273 0.02926,0.193987 0.05853,0.387974 0.0878,0.587842 0.05853,0.44088 0.163906,0.628989 0.216591,0.905274 0.03512,0.193988 0.01756,0.08817 -0.01756,0.135204 C 26.08838,13.71384 25.696176,12.549915 25.62593,11.826869 25.567398,11.280177 25.520561,10.921595 25.397633,10.404294 25.23958,9.7576681 25.30982,9.7753031 24.958597,9.1992184 24.77713,8.9052986 24.548832,8.4350258 24.26785,8.2469167 23.102947,7.4709655 23.284413,7.3122486 21.926333,7.6825883 21.70389,7.7413748 21.575106,7.8824547 21.422908,8.0000229 21.305832,8.0881979 21.065826,8.3409712 20.937043,8.3409712 20.896068,8.1646184 21.130218,8.0352939 21.235586,7.9353597 21.861941,7.3357623 21.739013,7.4239392 22.699035,7.1476532 22.500006,7.0006936 22.318539,7.0065723 22.037556,6.959544 c -0.515134,-0.082293 -1.059535,0.3527046 -1.40491,0.676017 -0.0761,0.076422 -0.152199,0.1822314 -0.269274,0.1528401 0,-0.076421 0.386349,-0.7583162 0.491718,-0.8464931 0.08195,-0.07054 0.193176,-0.088175 0.280982,-0.1704731 -0.825385,-0.088175 -1.317104,0.099933 -2.107365,0.2821637 -0.43318,0.099933 -0.58538,0.1763518 -1.041974,0.1058119 -0.193175,-0.023507 -0.33952,-0.082293 -0.503426,-0.011753 -0.222444,0.094056 -0.222444,0.1645955 -0.374642,0.25865 0.111221,0.3703397 0.380496,0.4467592 0.169758,1.1815608 -0.169758,0.5995971 -0.122929,0.5290562 -0.01756,1.0698709 l -0.0059,0.1645955 C 17.091079,9.8105809 17.06181,9.5225346 16.968149,9.2521282 16.862781,8.9640872 16.897903,8.7642207 16.886199,8.4409074 16.874485,8.0705678 16.330089,6.9595479 15.996423,6.7596805 c -0.07025,-0.041152 -0.240006,-0.082293 -0.321959,-0.1058099 -0.16976,-0.047033 -0.193175,-0.023507 -0.351228,0.029398 -0.427326,0.1410818 -0.866361,0.2880413 -1.29954,0.4291242 -0.275129,0.082293 -0.304397,0.1822314 -0.480012,0.3703396 -0.163905,0.1704751 -0.257566,0.2880424 -0.427326,0.4585175 -0.234152,0.2410141 -0.1522,0.2057441 -0.46245,0.3879736 -0.105368,0.058787 -0.140491,0.1352042 -0.204882,0.2175015 -0.117076,0.1410828 -0.111222,0.1234478 -0.122931,0.3527056 -0.01756,0.4996648 0.204884,1.1051414 0.134638,1.6106854 -0.05268,0.376218 -0.09366,0.793585 -0.01171,1.175682 0.02341,0.105811 0.08195,0.217502 0.05853,0.329191 -0.0059,0.0059 -0.0059,0.01175 -0.01171,0.01764 z m -0.05854,11.233647 c 0.684893,0.458516 0.778555,0.828857 1.182466,0.840611 l 1.211735,0.04115 c 0.415619,0.0059 0.813677,-0.205743 1.270272,-0.387974 0.181468,-0.07054 0.421474,-0.14696 0.579525,-0.235135 0.169761,-0.09993 0.304397,-0.26453 0.485865,-0.346828 0.0059,0.834737 -0.269274,1.093388 0.187321,2.251433 0.08195,0.205743 0.234153,0.370338 0.333667,0.552569 0.327812,-0.0059 0.755138,-0.08817 1.100513,-0.1352 0.345373,-0.04115 0.743431,-0.08229 1.088805,-0.146965 0.55611,-0.10581 1.633206,-0.376214 2.154194,-0.329189 0.936607,0.08817 2.411762,-0.09993 3.383491,-0.25865 0.146345,-0.02354 1.106367,-0.52318 1.18832,-0.693652 0.07025,-0.135204 0.146344,-0.270409 0.222443,-0.417369 0.111223,-0.223378 0.561965,-1.046354 0.614649,-1.240343 l 0.427326,-1.487244 c 0.09951,-0.358584 0.526843,-1.722375 0.556111,-1.945755 0.03512,-0.264528 0.105368,-0.92291 0.0878,-1.169804 C 28.49428,17.881629 28.347931,17.399599 28.283539,17.0998 28.008411,15.859455 27.879628,15.336276 27.475715,14.166471 27.329372,13.743226 26.948875,12.726261 26.72643,12.391192 25.783969,10.980372 25.983,11.515308 25.579087,9.7694186 25.520555,9.5342822 25.538112,9.5048908 25.415181,9.3226594 L 24.935176,8.5584668 C 24.548825,7.9471111 24.671756,8.1352212 23.992714,7.6179201 L 22.927325,6.7949426 C 22.722443,6.6362248 22.745857,6.6714958 22.447314,6.6362248 21.908767,6.5715625 20.691177,6.3599399 20.222874,6.4598727 19.854085,6.5362906 18.437467,6.9066322 18.156487,6.8654836 17.799404,6.806698 17.454031,6.753794 17.079389,6.7008881 16.622793,6.6303471 15.967168,6.3716969 15.604234,6.2952772 c -0.146345,-0.029388 -0.351228,0.07054 -0.49172,0.1175683 L 13.719312,6.8713622 C 13.56126,6.9301488 13.473454,7.0712287 13.385646,7.1711599 13.180763,7.4062973 12.999296,7.5885278 12.78856,7.8236652 12.595384,8.0411657 12.314403,8.1469776 11.998298,8.3056954 11.734877,8.4350199 11.43048,8.6172504 11.161206,8.7171836 9.9670322,9.1521862 10.616804,8.8112402 9.5338523,9.5754318 9.0479874,9.9163799 8.1113814,11.333076 7.6957613,11.50943 7.2977047,11.685782 7.2859964,11.527065 6.8059858,11.862134 6.5425645,12.044365 6.3084131,12.203082 6.0567004,12.385313 5.6059585,12.720383 5.7523032,12.514639 5.535713,13.114236 5.3776605,13.54336 5.3074149,13.602144 5.3191227,14.13708 c 0.011713,0.723045 -0.029263,1.651834 -0.046829,2.439541 -0.00584,0.376219 -0.064387,0.805343 0.064396,1.134535 l 1.0829515,2.686433 c 0.3804962,0.958182 0.6087939,1.158048 1.1180725,1.986904 0.1170771,0.193988 0.1053688,0.235136 0.2926898,0.340948 L 9.3875113,23.6895 c 0.1639064,0.105812 0.2165918,0.193989 0.474158,0.170476 0.1873207,-0.02351 0.3804957,-0.04703 0.5736707,-0.06467 1.194173,-0.123447 1.317104,-0.399732 2.001997,-0.529057 z" />
</svg>
